<?xml version="1.0" encoding="UTF-8" standalone="no"?>
<svg
   xmlns:dc="http://purl.org/dc/elements/1.1/"
   xmlns:cc="http://creativecommons.org/ns#"
   xmlns:rdf="http://www.w3.org/1999/02/22-rdf-syntax-ns#"
   xmlns:svg="http://www.w3.org/2000/svg"
   xmlns="http://www.w3.org/2000/svg"
   xmlns:sodipodi="http://sodipodi.sourceforge.net/DTD/sodipodi-0.dtd"
   xmlns:inkscape="http://www.inkscape.org/namespaces/inkscape"
   sodipodi:docname="favicon.svg"
   inkscape:version="1.0 (4035a4f, 2020-05-01)"
   id="svg427"
   version="1.1"
   viewBox="0 0 29.117154 29.11929"
   height="29.119291mm"
   width="29.117155mm">
  <defs
     id="defs421" />
  <sodipodi:namedview
     inkscape:window-maximized="0"
     inkscape:window-y="23"
     inkscape:window-x="0"
     inkscape:window-height="755"
     inkscape:window-width="1252"
     fit-margin-bottom="0"
     fit-margin-right="0"
     fit-margin-left="0"
     fit-margin-top="0"
     showgrid="false"
     inkscape:document-rotation="0"
     inkscape:current-layer="layer1"
     inkscape:document-units="mm"
     inkscape:cy="64.728738"
     inkscape:cx="44.756605"
     inkscape:zoom="2.9646984"
     inkscape:pageshadow="2"
     inkscape:pageopacity="0.0"
     borderopacity="1.0"
     bordercolor="#666666"
     pagecolor="#ffffff"
     id="base" />
  <metadata
     id="metadata424">
    <rdf:RDF>
      <cc:Work
         rdf:about="">
        <dc:format>image/svg+xml</dc:format>
        <dc:type
           rdf:resource="http://purl.org/dc/dcmitype/StillImage" />
        <dc:title></dc:title>
      </cc:Work>
    </rdf:RDF>
  </metadata>
  <g
     transform="translate(-87.732464,-88.759759)"
     id="layer1"
     inkscape:groupmode="layer"
     inkscape:label="Layer 1">
    <path
       id="path1911"
       d="m 102.29102,89.259759 c -2.3015,1e-4 -4.512751,0.679927 -6.535161,1.751947 -0.02388,-0.11567 -0.09793,-0.25116 -0.197265,-0.29297 -0.114422,-0.0482 -0.211152,-0.0488 -0.330078,-0.0488 -0.579666,0 -1.459798,0.0449 -1.638672,0.0449 -0.708779,0 -1.938214,-0.0449 -2.326172,-0.0449 -0.112297,0 -0.207748,0.004 -0.314453,0.043 -0.05335,0.0197 -0.113942,0.0513 -0.164063,0.11133 -0.05012,0.06 -0.07813,0.14703 -0.07813,0.21875 0,0.10112 0.03735,0.21925 0.123047,0.29883 0.0857,0.0796 0.193737,0.10351 0.28125,0.10351 0.119942,0 0.350816,0.0277 0.56836,0.0957 0.467649,0.14697 0.776725,0.45013 1.128906,1.0371 a 0.250025,0.250025 0 0 0 0.002,0 l 0.152344,0.25196 c -2.995734,2.665267 -4.730532,6.473577 -4.730469,10.490224 1.76e-4,4.41998 2.091828,8.56699 5.61914,11.22071 -10e-4,0.0138 -0.003,0.039 -0.0039,0.0469 a 0.250025,0.250025 0 0 0 -0.002,0.004 c -0.02171,0.20991 -0.05592,0.3594 -0.0957,0.43554 -0.03978,0.0762 -0.05748,0.0912 -0.148438,0.10938 a 0.250025,0.250025 0 0 0 -0.0039,0.002 c -0.126061,0.028 -0.290546,0.0547 -0.498047,0.0547 -0.112655,0 -0.207248,0.006 -0.310547,0.0625 -0.103298,0.0568 -0.183593,0.20556 -0.183593,0.31055 0,0.13717 0.109185,0.28823 0.220703,0.34179 0.111518,0.0536 0.217258,0.0605 0.335937,0.0605 0.624577,0 1.59727,-0.0449 1.927735,-0.0449 0.206831,0 0.594171,0.0116 1.039062,0.0234 1.91964,0.9367 4.025484,1.43152 6.162114,1.43164 2.14611,0 4.26116,-0.49877 6.1875,-1.44336 0.15817,-0.005 0.34662,-0.0117 0.42187,-0.0117 0.39487,0 1.3691,0.0449 2.38672,0.0449 0.10685,0 0.21118,-0.009 0.31836,-0.0605 0.10718,-0.0516 0.22266,-0.19328 0.22265,-0.34179 1e-5,-0.12104 -0.0938,-0.26015 -0.19335,-0.3125 -0.0996,-0.0524 -0.19383,-0.0606 -0.30079,-0.0606 -0.2075,0 -0.5452,-0.0299 -0.74609,-0.0586 a 0.250025,0.250025 0 0 0 -0.002,0 c -0.15546,-0.0207 -0.21645,-0.0603 -0.26172,-0.11133 -0.0255,-0.0288 -0.0409,-0.10056 -0.0605,-0.1543 3.79572,-2.62198 6.08585,-6.92675 6.08594,-11.54883 -9e-5,-3.789467 -1.54398,-7.407247 -4.25195,-10.050774 0.0575,-0.1335 0.11475,-0.26425 0.17773,-0.41601 l 0.002,-0.002 c 0.40428,-0.95731 0.59869,-1.16063 0.75,-1.26562 0.20076,-0.13385 0.4561,-0.14063 0.60938,-0.14063 0.0933,0 0.18585,-0.001 0.29297,-0.0547 0.10711,-0.0537 0.20312,-0.20893 0.20312,-0.33398 0,-0.0744 -0.0273,-0.16223 -0.0781,-0.22461 -0.0508,-0.0624 -0.11416,-0.0961 -0.16992,-0.11719 -0.11152,-0.0421 -0.21204,-0.0449 -0.32422,-0.0449 -0.47566,0 -1.20647,0.0449 -1.4375,0.0449 -0.16085,0 -0.83229,-0.0449 -1.60743,-0.0449 -0.15413,0 -0.27468,0.002 -0.40039,0.043 -0.0628,0.0203 -0.13352,0.0527 -0.1914,0.11914 -0.0579,0.0664 -0.0859,0.16262 -0.0859,0.24024 0,0.0745 0.0272,0.16309 0.0781,0.22461 0.0509,0.0615 0.11172,0.0944 0.16406,0.11328 0.10468,0.0376 0.18942,0.0352 0.26758,0.0352 0.18614,0 0.39703,0.0191 0.5332,0.0645 0.0327,0.0109 0.0273,0.0136 0.0273,0.0527 0,0.0635 -0.0516,0.29598 -0.12109,0.47656 a 0.250025,0.250025 0 0 0 -0.002,0.004 c -0.006,0.0158 -0.0273,0.072 -0.041,0.10742 -2.43857,-1.84374 -5.38998,-2.890467 -8.45312,-2.890617 z m 0,0.499997 c 3.06115,1.5e-4 6.03216,1.03615 8.42968,2.93945 a 0.250025,0.250025 0 0 0 0.38868,-0.10547 c 0.037,-0.0972 0.11383,-0.29106 0.14453,-0.375 l 0.002,-0.004 c 0.0829,-0.21608 0.15234,-0.44164 0.15234,-0.65234 0,-0.14617 -0.1375,-0.26331 -0.26172,-0.375 0.36951,0.0132 0.83254,0.0273 0.97657,0.0273 0.12265,0 0.38862,-0.0101 0.60937,-0.0195 -0.24316,0.17238 -0.50217,0.48193 -0.91601,1.46289 a 0.250025,0.250025 0 0 0 -0.002,0.002 c -0.0831,0.20041 -0.15728,0.37235 -0.23633,0.55664 a 0.250025,0.250025 0 0 0 0.0567,0.27929 c 2.69049,2.559427 4.21475,6.110807 4.21484,9.824214 -9e-5,4.52515 -2.25685,8.75086 -6.01758,11.26758 a 0.250025,0.250025 0 0 0 -0.10742,0.25391 c 0.034,0.18155 0.0916,0.36384 0.22461,0.51367 0.0442,0.0498 0.13154,0.0546 0.18945,0.0918 -0.4388,-0.0118 -1.01437,-0.0234 -1.23828,-0.0234 -0.1076,0 -0.30954,0.007 -0.47266,0.0117 a 0.250025,0.250025 0 0 0 -0.10351,0.0254 c -1.87475,0.93147 -3.93981,1.41797 -6.0332,1.41797 -2.08425,-1.2e-4 -4.141425,-0.48248 -6.00977,-1.40625 a 0.250025,0.250025 0 0 0 -0.103516,-0.0254 c -0.463426,-0.0123 -0.856112,-0.0234 -1.08789,-0.0234 -0.223679,0 -0.714844,0.0143 -1.154297,0.0273 0.08937,-0.0654 0.206732,-0.0974 0.255859,-0.1914 0.09361,-0.17919 0.128184,-0.38114 0.152344,-0.61329 v -0.004 c 0.0077,-0.0664 0.0099,-0.13572 0.01367,-0.17774 a 0.250025,0.250025 0 0 0 -0.101563,-0.22265 c -3.473896,-2.55507 -5.523266,-6.60953 -5.523437,-10.92188 -6.2e-5,-3.944237 1.716096,-7.693737 4.703125,-10.269524 a 0.250025,0.250025 0 0 0 0.05078,-0.31836 l -0.248047,-0.41211 c -0.346308,-0.57718 -0.760409,-0.92399 -1.277343,-1.13672 0.532242,0.0134 1.117819,0.0312 1.628906,0.0312 0.167823,0 0.668209,-0.0158 1.101562,-0.0293 -0.102206,0.10334 -0.234375,0.20093 -0.234375,0.3164 0,0.13367 0.03797,0.21793 0.07813,0.32422 a 0.250025,0.250025 0 0 0 0.371094,0.12305 c 2.198369,-1.42786 4.763392,-2.18934 7.384768,-2.18945 z"
       style="color:#000000;font-style:normal;font-variant:normal;font-weight:normal;font-stretch:normal;font-size:medium;line-height:normal;font-family:sans-serif;font-variant-ligatures:normal;font-variant-position:normal;font-variant-caps:normal;font-variant-numeric:normal;font-variant-alternates:normal;font-variant-east-asian:normal;font-feature-settings:normal;font-variation-settings:normal;text-indent:0;text-align:start;text-decoration:none;text-decoration-line:none;text-decoration-style:solid;text-decoration-color:#000000;letter-spacing:normal;word-spacing:normal;text-transform:none;writing-mode:lr-tb;direction:ltr;text-orientation:mixed;dominant-baseline:auto;baseline-shift:baseline;text-anchor:start;white-space:normal;shape-padding:0;shape-margin:0;inline-size:0;clip-rule:nonzero;display:inline;overflow:visible;visibility:visible;opacity:1;isolation:auto;mix-blend-mode:normal;color-interpolation:sRGB;color-interpolation-filters:linearRGB;solid-color:#000000;solid-opacity:1;vector-effect:none;fill:#525252;fill-opacity:1;fill-rule:nonzero;stroke:#525252;stroke-width:1;stroke-linecap:round;stroke-linejoin:round;stroke-miterlimit:4;stroke-dasharray:none;stroke-dashoffset:1.13386;stroke-opacity:1;paint-order:markers fill stroke;color-rendering:auto;image-rendering:auto;shape-rendering:auto;text-rendering:auto;enable-background:accumulate;stop-color:#000000;stop-opacity:1" />
    <circle
       r="13.808734"
       cy="103.31924"
       cx="102.2903"
       id="path465"
       style="fill:#80b3ff;fill-opacity:1;stroke:#80b3ff;stroke-width:0.5;stroke-linecap:round;stroke-linejoin:round;stroke-miterlimit:4;stroke-dasharray:none;stroke-dashoffset:1.13386;stroke-opacity:1;paint-order:markers fill stroke" />
    <text
       xml:space="preserve"
       style="font-style:normal;font-variant:normal;font-weight:bold;font-stretch:normal;font-size:15.3047px;line-height:0.85;font-family:'TeX Gyre Adventor';-inkscape-font-specification:'TeX Gyre Adventor Bold';letter-spacing:0px;word-spacing:0px;display:inline;fill:#ec813b;fill-opacity:1;stroke:#ffffff;stroke-width:0.5;stroke-linecap:round;stroke-linejoin:round;stroke-miterlimit:4;stroke-dasharray:none;stroke-opacity:1"
       x="102.01948"
       y="102.44393"
       id="text5435"><tspan
         id="tspan453"
         sodipodi:role="line"
         x="102.01948"
         y="102.44393"
         style="font-style:normal;font-variant:normal;font-weight:bold;font-stretch:normal;line-height:0.85;font-family:'Trajan Pro';-inkscape-font-specification:'Trajan Pro Bold';text-align:center;text-anchor:middle;fill:#ec813b;fill-opacity:1;stroke:#ffffff;stroke-width:0.5;stroke-linecap:round;stroke-linejoin:round;stroke-miterlimit:4;stroke-dasharray:none;stroke-opacity:1">XV</tspan></text>
    <text
       id="text459"
       y="115.67307"
       x="102.01948"
       style="font-style:normal;font-variant:normal;font-weight:bold;font-stretch:normal;font-size:15.3047px;line-height:0.85;font-family:'TeX Gyre Adventor';-inkscape-font-specification:'TeX Gyre Adventor Bold';letter-spacing:0px;word-spacing:0px;display:inline;fill:#ec813b;fill-opacity:1;stroke:#ffffff;stroke-width:0.5;stroke-linecap:round;stroke-linejoin:round;stroke-miterlimit:4;stroke-dasharray:none;stroke-opacity:1"
       xml:space="preserve"><tspan
         style="font-style:normal;font-variant:normal;font-weight:bold;font-stretch:normal;line-height:0.85;font-family:'Trajan Pro';-inkscape-font-specification:'Trajan Pro Bold';text-align:center;text-anchor:middle;fill:#ec813b;fill-opacity:1;stroke:#ffffff;stroke-width:0.5;stroke-linecap:round;stroke-linejoin:round;stroke-miterlimit:4;stroke-dasharray:none;stroke-opacity:1"
         y="115.67307"
         x="102.01948"
         sodipodi:role="line"
         id="tspan457">III</tspan></text>
  </g>
</svg>
