<?xml version="1.0" encoding="UTF-8" standalone="no"?>
<svg
   xmlns:dc="http://purl.org/dc/elements/1.1/"
   xmlns:cc="http://creativecommons.org/ns#"
   xmlns:rdf="http://www.w3.org/1999/02/22-rdf-syntax-ns#"
   xmlns:svg="http://www.w3.org/2000/svg"
   xmlns="http://www.w3.org/2000/svg"
   xmlns:sodipodi="http://sodipodi.sourceforge.net/DTD/sodipodi-0.dtd"
   xmlns:inkscape="http://www.inkscape.org/namespaces/inkscape"
   sodipodi:docname="favicon.svg"
   inkscape:version="1.0 (4035a4f, 2020-05-01)"
   id="svg427"
   version="1.1"
   viewBox="0 0 30.116956 30.118991"
   height="30.118992mm"
   width="30.116957mm">
  <defs
     id="defs421" />
  <sodipodi:namedview
     inkscape:guide-bbox="true"
     showguides="true"
     inkscape:window-maximized="0"
     inkscape:window-y="23"
     inkscape:window-x="0"
     inkscape:window-height="755"
     inkscape:window-width="1252"
     fit-margin-bottom="0"
     fit-margin-right="0"
     fit-margin-left="0"
     fit-margin-top="0"
     showgrid="false"
     inkscape:document-rotation="0"
     inkscape:current-layer="layer1"
     inkscape:document-units="mm"
     inkscape:cy="46.135124"
     inkscape:cx="52.088082"
     inkscape:zoom="2.5088607"
     inkscape:pageshadow="2"
     inkscape:pageopacity="0.0"
     borderopacity="1.0"
     bordercolor="#666666"
     pagecolor="#ffffff"
     id="base">
    <sodipodi:guide
       id="guide1948"
       orientation="0,-1"
       position="15.058437,-7.6740289" />
  </sodipodi:namedview>
  <metadata
     id="metadata424">
    <rdf:RDF>
      <cc:Work
         rdf:about="">
        <dc:format>image/svg+xml</dc:format>
        <dc:type
           rdf:resource="http://purl.org/dc/dcmitype/StillImage" />
        <dc:title></dc:title>
      </cc:Work>
    </rdf:RDF>
  </metadata>
  <g
     transform="translate(-87.232584,-88.259709)"
     id="layer1"
     inkscape:groupmode="layer"
     inkscape:label="Layer 1">
    <path
       d="m 102.29127,89.009859 c -2.444572,0 -4.746483,0.615797 -6.760316,1.698607 -0.102376,-0.0373 -0.193245,-0.0398 -0.302307,-0.0398 -0.579784,0 -1.460097,0.047 -1.638659,0.047 -0.708686,0 -1.938333,-0.047 -2.326473,-0.047 v 5.2e-4 c -0.112297,0 -0.207485,0.003 -0.314193,0.0429 -0.05335,0.0198 -0.114286,0.0516 -0.164331,0.11161 -0.05004,0.0601 -0.07803,0.14704 -0.07803,0.2186 0,0.10119 0.03732,0.21914 0.122989,0.29869 0.08567,0.0796 0.193534,0.10387 0.28112,0.10387 0.119724,0 0.350748,0.0276 0.568441,0.0956 0.467624,0.14697 0.779017,0.45224 1.131197,1.03921 l 0.01189,0.0196 c -2.966094,2.622557 -4.840015,6.453017 -4.840014,10.719234 10e-7,4.72207 2.293904,8.91248 5.826001,11.51971 -0.01766,0.0817 -0.03695,0.14756 -0.05839,0.18862 -0.03976,0.0761 -0.05785,0.0929 -0.148829,0.1111 a 0.250025,0.250025 0 0 0 -0.0036,0 c -0.126262,0.0281 -0.290805,0.0548 -0.498161,0.0548 -0.112655,0 -0.207277,0.008 -0.310575,0.0646 -0.103297,0.0568 -0.183451,0.20359 -0.183451,0.3085 0,0.1369 0.10914,0.2884 0.220658,0.3421 0.111518,0.0537 0.217184,0.0605 0.335897,0.0605 0.624685,0 1.597254,-0.045 1.927531,-0.045 0.09231,0 0.300562,0.007 0.449584,0.0108 2.011848,1.08028 4.31085,1.69447 6.752051,1.69447 2.44662,-10e-6 4.74992,-0.61694 6.76496,-1.70171 0.44582,0.006 1.29567,0.0413 2.23087,0.0413 0.10689,0 0.21115,-0.009 0.31833,-0.0605 0.10718,-0.0516 0.22272,-0.1933 0.22272,-0.3421 1e-5,-0.12158 -0.0937,-0.25842 -0.19327,-0.31057 -0.0996,-0.0522 -0.19383,-0.0625 -0.30076,-0.0625 -0.20735,0 -0.54512,-0.0297 -0.7462,-0.0584 a 0.250025,0.250025 0 0 0 -0.002,0 c -0.0767,-0.0102 -0.12785,-0.0252 -0.16898,-0.0429 3.73325,-2.58386 6.18257,-6.89403 6.18257,-11.77292 0,-4.046517 -1.68648,-7.700487 -4.39095,-10.304274 0.0237,-0.0567 0.0444,-0.10264 0.0687,-0.16123 v -0.002 c 0.40437,-0.95789 0.60042,-1.15875 0.75189,-1.264 0.20054,-0.13271 0.4572,-0.14263 0.60978,-0.14263 0.0932,0 0.1838,-5.6e-4 0.29094,-0.0543 0.10714,-0.0536 0.20309,-0.20729 0.20309,-0.33228 0,-0.0744 -0.0273,-0.16242 -0.078,-0.22479 -0.0507,-0.0624 -0.11426,-0.0977 -0.17002,-0.11886 -0.11153,-0.0423 -0.21223,-0.045 -0.32453,-0.045 -0.4758,0 -1.20635,0.047 -1.43712,0.047 -0.16051,0 -0.83242,-0.047 -1.60765,-0.047 -0.15416,0 -0.27479,0.002 -0.40049,0.0429 -0.0628,0.0204 -0.13343,0.0549 -0.19121,0.12143 -0.0578,0.0665 -0.0858,0.16075 -0.0858,0.23823 0,0.0337 0.007,0.0702 0.0176,0.10594 -2.19564,-1.37195 -4.78711,-2.167817 -7.56439,-2.167827 z m 7.9778,2.432927 c 0.0266,8.7e-4 0.0537,0.002 0.0786,0.002 0.18614,0 0.39708,0.0188 0.5333,0.0641 0.0323,0.0108 0.0274,0.0136 0.0274,0.0527 0,0.0425 -0.0277,0.16177 -0.0636,0.28888 -0.18833,-0.14077 -0.38036,-0.27618 -0.57568,-0.40773 z"
       style="color:#000000;font-style:normal;font-variant:normal;font-weight:normal;font-stretch:normal;font-size:medium;line-height:normal;font-family:sans-serif;font-variant-ligatures:normal;font-variant-position:normal;font-variant-caps:normal;font-variant-numeric:normal;font-variant-alternates:normal;font-variant-east-asian:normal;font-feature-settings:normal;font-variation-settings:normal;text-indent:0;text-align:start;text-decoration:none;text-decoration-line:none;text-decoration-style:solid;text-decoration-color:#000000;letter-spacing:normal;word-spacing:normal;text-transform:none;writing-mode:lr-tb;direction:ltr;text-orientation:mixed;dominant-baseline:auto;baseline-shift:baseline;text-anchor:start;white-space:normal;shape-padding:0;shape-margin:0;inline-size:0;clip-rule:nonzero;display:inline;overflow:visible;visibility:visible;isolation:auto;mix-blend-mode:normal;color-interpolation:sRGB;color-interpolation-filters:linearRGB;solid-color:#000000;solid-opacity:1;vector-effect:none;fill:#ffffff;fill-opacity:1;fill-rule:nonzero;stroke:#525252;stroke-width:1.5;stroke-linecap:round;stroke-linejoin:round;stroke-miterlimit:4;stroke-dasharray:none;stroke-dashoffset:1.13386;stroke-opacity:1;paint-order:markers fill stroke;color-rendering:auto;image-rendering:auto;shape-rendering:auto;text-rendering:auto;enable-background:accumulate;stop-color:#000000"
       id="path1997" />
    <g
       style="opacity:1"
       id="g1957">
      <path
         id="path1959"
         d="m 116.09903,103.31924 c 0,7.62635 -6.18238,13.80873 -13.80873,13.80873 -7.626352,0 -13.808733,-6.18238 -13.808735,-13.80873 -2e-6,-7.626355 6.18238,-13.808738 13.808735,-13.808737 7.62635,2e-6 13.80873,6.182384 13.80873,13.808737 z"
         style="color:#000000;font-style:normal;font-variant:normal;font-weight:normal;font-stretch:normal;font-size:medium;line-height:normal;font-family:sans-serif;font-variant-ligatures:normal;font-variant-position:normal;font-variant-caps:normal;font-variant-numeric:normal;font-variant-alternates:normal;font-variant-east-asian:normal;font-feature-settings:normal;font-variation-settings:normal;text-indent:0;text-align:start;text-decoration:none;text-decoration-line:none;text-decoration-style:solid;text-decoration-color:#000000;letter-spacing:normal;word-spacing:normal;text-transform:none;writing-mode:lr-tb;direction:ltr;text-orientation:mixed;dominant-baseline:auto;baseline-shift:baseline;text-anchor:start;white-space:normal;shape-padding:0;shape-margin:0;inline-size:0;clip-rule:nonzero;display:inline;overflow:visible;visibility:visible;isolation:auto;mix-blend-mode:normal;color-interpolation:sRGB;color-interpolation-filters:linearRGB;solid-color:#000000;solid-opacity:1;vector-effect:none;fill:#ffffff;fill-opacity:1;fill-rule:nonzero;stroke:none;stroke-width:1;stroke-linecap:round;stroke-linejoin:round;stroke-miterlimit:4;stroke-dasharray:none;stroke-dashoffset:1.13386;stroke-opacity:1;paint-order:markers fill stroke;color-rendering:auto;image-rendering:auto;shape-rendering:auto;text-rendering:auto;enable-background:accumulate;stop-color:#000000;stop-opacity:1" />
      <path
         id="path1961"
         d="m 102.29102,89.009766 c -7.896579,-10e-7 -14.3086,6.412019 -14.308598,14.308594 2e-6,7.89657 6.412022,14.31055 14.308598,14.31055 7.89657,-1e-5 14.30859,-6.41398 14.30859,-14.31055 0,-7.896573 -6.41202,-14.308592 -14.30859,-14.308594 z m 0,1 c 7.35613,2e-6 13.30859,5.952461 13.30859,13.308594 0,7.35613 -5.95246,13.31054 -13.30859,13.31055 -7.356136,0 -13.308596,-5.95442 -13.308598,-13.31055 -2e-6,-7.356135 5.952459,-13.308595 13.308598,-13.308594 z"
         style="color:#000000;font-style:normal;font-variant:normal;font-weight:normal;font-stretch:normal;font-size:medium;line-height:normal;font-family:sans-serif;font-variant-ligatures:normal;font-variant-position:normal;font-variant-caps:normal;font-variant-numeric:normal;font-variant-alternates:normal;font-variant-east-asian:normal;font-feature-settings:normal;font-variation-settings:normal;text-indent:0;text-align:start;text-decoration:none;text-decoration-line:none;text-decoration-style:solid;text-decoration-color:#000000;letter-spacing:normal;word-spacing:normal;text-transform:none;writing-mode:lr-tb;direction:ltr;text-orientation:mixed;dominant-baseline:auto;baseline-shift:baseline;text-anchor:start;white-space:normal;shape-padding:0;shape-margin:0;inline-size:0;clip-rule:nonzero;display:inline;overflow:visible;visibility:visible;isolation:auto;mix-blend-mode:normal;color-interpolation:sRGB;color-interpolation-filters:linearRGB;solid-color:#000000;solid-opacity:1;vector-effect:none;fill:#80b3ff;fill-opacity:1;fill-rule:nonzero;stroke:none;stroke-width:1;stroke-linecap:round;stroke-linejoin:round;stroke-miterlimit:4;stroke-dasharray:none;stroke-dashoffset:1.13386;stroke-opacity:1;paint-order:markers fill stroke;color-rendering:auto;image-rendering:auto;shape-rendering:auto;text-rendering:auto;enable-background:accumulate;stop-color:#000000;stop-opacity:1" />
    </g>
    <g
       style="font-style:normal;font-variant:normal;font-weight:bold;font-stretch:normal;font-size:15.3047px;line-height:0.85;font-family:'TeX Gyre Adventor';-inkscape-font-specification:'TeX Gyre Adventor Bold';letter-spacing:0px;word-spacing:0px;display:inline;fill:#ec813b;fill-opacity:1;stroke:#ec813b;stroke-width:0.5;stroke-linecap:round;stroke-linejoin:round;stroke-miterlimit:4;stroke-dasharray:none;stroke-opacity:1"
       id="text5435"
       aria-label="XV">
      <path
         id="path2181"
         style="font-style:normal;font-variant:normal;font-weight:bold;font-stretch:normal;line-height:0.85;font-family:'Trajan Pro';-inkscape-font-specification:'Trajan Pro Bold';text-align:center;text-anchor:middle;fill:#ec813b;fill-opacity:1;stroke:#ec813b;stroke-width:0.5;stroke-linecap:round;stroke-linejoin:round;stroke-miterlimit:4;stroke-dasharray:none;stroke-opacity:1"
         d="m 99.834732,92.480572 c 0.459138,-0.673407 0.765238,-1.101938 1.117248,-1.193767 0.21426,-0.06122 0.39792,-0.09183 0.55096,-0.09183 0.15305,0 0.24488,-0.04591 0.24488,-0.137742 0,-0.09183 -0.10713,-0.137742 -0.27549,-0.137742 -0.56627,0 -1.19376,0.04591 -1.499856,0.04591 -0.290789,0 -0.933586,-0.04591 -1.53047,-0.04591 -0.214266,0 -0.321398,0.04591 -0.321398,0.137742 0,0.107133 0.09183,0.137742 0.183656,0.137742 0.122438,0 0.336703,0 0.48975,0.04591 0.153047,0.04591 0.26018,0.168352 0.26018,0.275485 0,0.122437 -0.04591,0.367313 -0.168351,0.581578 -0.229571,0.428532 -1.637603,2.555885 -2.08144,3.229292 -0.596883,-1.040719 -1.285594,-2.157963 -1.943697,-3.382339 -0.09183,-0.168351 -0.153047,-0.352008 -0.153047,-0.443836 0,-0.09183 0.04592,-0.198961 0.183657,-0.244875 0.122437,-0.04591 0.321399,-0.06122 0.413227,-0.06122 0.137742,0 0.22957,-0.03061 0.22957,-0.137742 0,-0.107133 -0.09183,-0.137742 -0.306094,-0.137742 -0.566274,0 -1.423337,0.04591 -1.637603,0.04591 -0.719321,0 -1.959001,-0.04591 -2.326314,-0.04591 -0.198961,0 -0.306094,0.03061 -0.306094,0.122437 0,0.107133 0.06122,0.153047 0.153047,0.153047 0.153047,0 0.397922,0.03061 0.642797,0.107133 0.535665,0.168352 0.902978,0.535665 1.27029,1.147853 l 2.632409,4.361839 -2.923198,4.178188 c -0.52036,0.73462 -0.811149,1.02541 -1.254985,1.14785 -0.229571,0.0612 -0.459141,0.0765 -0.566274,0.0765 -0.122438,0 -0.214266,0.0459 -0.214266,0.13774 0,0.0918 0.07652,0.13775 0.229571,0.13775 h 0.260179 c 0.244876,0 0.994806,-0.0459 1.285595,-0.0459 0.382618,0 1.346814,0.0459 1.438642,0.0459 h 0.275485 c 0.198961,0 0.306094,-0.0306 0.306094,-0.13775 0,-0.0918 -0.09183,-0.13774 -0.183657,-0.13774 -0.122437,0 -0.26018,-0.0153 -0.352008,-0.0306 -0.137742,-0.0306 -0.275484,-0.12244 -0.290789,-0.26018 -0.0153,-0.16835 0.06122,-0.39792 0.214266,-0.6428 l 2.265095,-3.657819 c 0.704016,1.147853 1.576384,2.663019 2.418143,4.162879 0.107133,0.19896 0.04591,0.3367 -0.03061,0.35201 -0.137742,0.0306 -0.214265,0.0765 -0.214265,0.16835 0,0.10713 0.122437,0.13774 0.520359,0.15305 1.178464,0.0306 2.387534,0.0306 2.754844,0.0306 h 0.45914 c 0.16836,0 0.29079,-0.0459 0.29079,-0.15305 0,-0.0918 -0.0918,-0.12244 -0.19896,-0.12244 -0.13774,0 -0.3214,-0.0153 -0.58158,-0.0918 -0.39792,-0.12243 -0.62749,-0.30609 -0.88767,-0.64279 -0.38262,-0.48975 -2.861978,-4.637329 -3.351729,-5.387259 z" />
      <path
         id="path2183"
         style="font-style:normal;font-variant:normal;font-weight:bold;font-stretch:normal;line-height:0.85;font-family:'Trajan Pro';-inkscape-font-specification:'Trajan Pro Bold';text-align:center;text-anchor:middle;fill:#ec813b;fill-opacity:1;stroke:#ec813b;stroke-width:0.5;stroke-linecap:round;stroke-linejoin:round;stroke-miterlimit:4;stroke-dasharray:none;stroke-opacity:1"
         d="m 106.88852,101.77052 c 0.29079,0.71933 0.38262,0.93359 0.58158,0.93359 0.21427,0 0.3061,-0.24487 0.70402,-1.13255 0.3367,-0.76523 1.05602,-2.433444 2.03552,-4.66793 0.82646,-1.882478 1.23968,-2.708932 1.83657,-4.147573 0.41323,-0.979501 0.6428,-1.239681 0.84176,-1.377423 0.27548,-0.183657 0.59688,-0.183657 0.74993,-0.183657 0.15304,0 0.24487,-0.03061 0.24487,-0.137742 0,-0.107133 -0.12244,-0.137742 -0.3214,-0.137742 -0.45914,0 -1.17846,0.04591 -1.43864,0.04591 -0.19896,0 -0.84176,-0.04591 -1.60699,-0.04591 -0.29079,0 -0.42853,0.03061 -0.42853,0.153047 0,0.107132 0.12243,0.122437 0.26018,0.122437 0.19896,0 0.42853,0.01531 0.61218,0.07652 0.13775,0.04591 0.19897,0.168351 0.19897,0.290789 0,0.137742 -0.0612,0.367313 -0.13775,0.566274 -0.36731,1.01011 -2.35692,5.938223 -3.01502,7.62174 h -0.0612 l -2.63241,-6.948333 c -0.21427,-0.55097 -0.35201,-0.979501 -0.35201,-1.178462 0,-0.137743 0.0459,-0.244875 0.15305,-0.321399 0.12244,-0.09183 0.35201,-0.107133 0.59688,-0.107133 0.13774,0 0.22957,-0.03061 0.22957,-0.137742 0,-0.107133 -0.16835,-0.137742 -0.35201,-0.137742 -0.76523,0 -1.49986,0.04591 -1.88247,0.04591 -0.53567,0 -1.40804,-0.04591 -2.21918,-0.04591 -0.22958,0 -0.39793,0.0153 -0.39793,0.137742 0,0.09183 0.0459,0.137742 0.18366,0.137742 0.12244,0 0.36731,0 0.59688,0.06122 0.55097,0.153047 0.81115,0.321399 1.16316,1.163157 z" />
    </g>
    <g
       style="font-style:normal;font-variant:normal;font-weight:bold;font-stretch:normal;font-size:15.3047px;line-height:0.85;font-family:'TeX Gyre Adventor';-inkscape-font-specification:'TeX Gyre Adventor Bold';letter-spacing:0px;word-spacing:0px;display:inline;fill:#ec813b;fill-opacity:1;stroke:#ec813b;stroke-width:0.5;stroke-linecap:round;stroke-linejoin:round;stroke-miterlimit:4;stroke-dasharray:none;stroke-opacity:1"
       id="text459"
       aria-label="III">
      <path
         id="path2186"
         style="font-style:normal;font-variant:normal;font-weight:bold;font-stretch:normal;line-height:0.85;font-family:'Trajan Pro';-inkscape-font-specification:'Trajan Pro Bold';text-align:center;text-anchor:middle;fill:#ec813b;fill-opacity:1;stroke:#ec813b;stroke-width:0.5;stroke-linecap:round;stroke-linejoin:round;stroke-miterlimit:4;stroke-dasharray:none;stroke-opacity:1"
         d="m 94.171873,111.28062 c 0,1.48456 0,2.69363 -0.07652,3.33643 -0.04591,0.44383 -0.137742,0.70401 -0.443836,0.76523 -0.137743,0.0306 -0.321399,0.0612 -0.55097,0.0612 -0.183656,0 -0.244875,0.0459 -0.244875,0.12244 0,0.10713 0.107133,0.15305 0.306094,0.15305 0.612188,0 1.576384,-0.0459 1.928392,-0.0459 0.413227,0 1.377423,0.0459 2.387534,0.0459 0.168351,0 0.290789,-0.0459 0.290789,-0.15305 0,-0.0765 -0.07652,-0.12244 -0.244875,-0.12244 -0.229571,0 -0.566274,-0.0306 -0.78054,-0.0612 -0.459141,-0.0612 -0.566274,-0.3367 -0.612188,-0.74993 -0.06122,-0.6581 -0.06122,-1.86717 -0.06122,-3.35173 V 108.587 c 0,-2.32632 0,-2.75485 0.03061,-3.2446 0.03061,-0.53566 0.153047,-0.79584 0.566273,-0.87237 0.183657,-0.0306 0.306094,-0.0459 0.459141,-0.0459 0.153047,0 0.244876,-0.0306 0.244876,-0.15305 0,-0.0918 -0.122438,-0.12244 -0.321399,-0.12244 -0.581579,0 -1.484556,0.0459 -1.867173,0.0459 -0.443837,0 -1.408033,-0.0459 -1.989611,-0.0459 -0.244876,0 -0.367313,0.0306 -0.367313,0.12244 0,0.12244 0.09183,0.15305 0.244875,0.15305 0.183656,0 0.382618,0.0153 0.550969,0.0612 0.336704,0.0765 0.489751,0.3367 0.52036,0.85706 0.03061,0.48975 0.03061,0.91828 0.03061,3.2446 z" />
      <path
         id="path2188"
         style="font-style:normal;font-variant:normal;font-weight:bold;font-stretch:normal;line-height:0.85;font-family:'Trajan Pro';-inkscape-font-specification:'Trajan Pro Bold';text-align:center;text-anchor:middle;fill:#ec813b;fill-opacity:1;stroke:#ec813b;stroke-width:0.5;stroke-linecap:round;stroke-linejoin:round;stroke-miterlimit:4;stroke-dasharray:none;stroke-opacity:1"
         d="m 101.07692,111.28062 c 0,1.48456 0,2.69363 -0.0765,3.33643 -0.0459,0.44383 -0.13774,0.70401 -0.44384,0.76523 -0.13774,0.0306 -0.32139,0.0612 -0.55097,0.0612 -0.183652,0 -0.244871,0.0459 -0.244871,0.12244 0,0.10713 0.107133,0.15305 0.306091,0.15305 0.61219,0 1.57639,-0.0459 1.9284,-0.0459 0.41322,0 1.37742,0.0459 2.38753,0.0459 0.16835,0 0.29079,-0.0459 0.29079,-0.15305 0,-0.0765 -0.0765,-0.12244 -0.24488,-0.12244 -0.22957,0 -0.56627,-0.0306 -0.78054,-0.0612 -0.45914,-0.0612 -0.56627,-0.3367 -0.61218,-0.74993 -0.0612,-0.6581 -0.0612,-1.86717 -0.0612,-3.35173 V 108.587 c 0,-2.32632 0,-2.75485 0.0306,-3.2446 0.0306,-0.53566 0.15304,-0.79584 0.56627,-0.87237 0.18366,-0.0306 0.30609,-0.0459 0.45914,-0.0459 0.15305,0 0.24488,-0.0306 0.24488,-0.15305 0,-0.0918 -0.12244,-0.12244 -0.3214,-0.12244 -0.58158,0 -1.48456,0.0459 -1.86718,0.0459 -0.44383,0 -1.40803,-0.0459 -1.98961,-0.0459 -0.244872,0 -0.36731,0.0306 -0.36731,0.12244 0,0.12244 0.09183,0.15305 0.244875,0.15305 0.183655,0 0.382615,0.0153 0.550965,0.0612 0.33671,0.0765 0.48975,0.3367 0.52036,0.85706 0.0306,0.48975 0.0306,0.91828 0.0306,3.2446 z" />
      <path
         id="path2190"
         style="font-style:normal;font-variant:normal;font-weight:bold;font-stretch:normal;line-height:0.85;font-family:'Trajan Pro';-inkscape-font-specification:'Trajan Pro Bold';text-align:center;text-anchor:middle;fill:#ec813b;fill-opacity:1;stroke:#ec813b;stroke-width:0.5;stroke-linecap:round;stroke-linejoin:round;stroke-miterlimit:4;stroke-dasharray:none;stroke-opacity:1"
         d="m 107.98197,111.28062 c 0,1.48456 0,2.69363 -0.0765,3.33643 -0.0459,0.44383 -0.13774,0.70401 -0.44384,0.76523 -0.13774,0.0306 -0.32139,0.0612 -0.55097,0.0612 -0.18365,0 -0.24487,0.0459 -0.24487,0.12244 0,0.10713 0.10713,0.15305 0.30609,0.15305 0.61219,0 1.57639,-0.0459 1.9284,-0.0459 0.41322,0 1.37742,0.0459 2.38753,0.0459 0.16835,0 0.29079,-0.0459 0.29079,-0.15305 0,-0.0765 -0.0765,-0.12244 -0.24488,-0.12244 -0.22957,0 -0.56627,-0.0306 -0.78054,-0.0612 -0.45914,-0.0612 -0.56627,-0.3367 -0.61218,-0.74993 -0.0612,-0.6581 -0.0612,-1.86717 -0.0612,-3.35173 V 108.587 c 0,-2.32632 0,-2.75485 0.0306,-3.2446 0.0306,-0.53566 0.15304,-0.79584 0.56627,-0.87237 0.18366,-0.0306 0.30609,-0.0459 0.45914,-0.0459 0.15305,0 0.24488,-0.0306 0.24488,-0.15305 0,-0.0918 -0.12244,-0.12244 -0.3214,-0.12244 -0.58158,0 -1.48456,0.0459 -1.86718,0.0459 -0.44383,0 -1.40803,-0.0459 -1.98961,-0.0459 -0.24487,0 -0.36731,0.0306 -0.36731,0.12244 0,0.12244 0.0918,0.15305 0.24488,0.15305 0.18365,0 0.38261,0.0153 0.55096,0.0612 0.33671,0.0765 0.48976,0.3367 0.52036,0.85706 0.0306,0.48975 0.0306,0.91828 0.0306,3.2446 z" />
    </g>
  </g>
</svg>
