<?xml version="1.0" encoding="UTF-8" standalone="no"?>
<svg
   xmlns:dc="http://purl.org/dc/elements/1.1/"
   xmlns:cc="http://creativecommons.org/ns#"
   xmlns:rdf="http://www.w3.org/1999/02/22-rdf-syntax-ns#"
   xmlns:svg="http://www.w3.org/2000/svg"
   xmlns="http://www.w3.org/2000/svg"
   xmlns:sodipodi="http://sodipodi.sourceforge.net/DTD/sodipodi-0.dtd"
   xmlns:inkscape="http://www.inkscape.org/namespaces/inkscape"
   version="1.1"
   id="svg2"
   xml:space="preserve"
   width="823.64117"
   height="416.328"
   viewBox="0 0 823.64116 416.328"
   sodipodi:docname="ist.svg"
   inkscape:version="1.0.2 (1.0.2+r75+1)"><metadata
     id="metadata8"><rdf:RDF><cc:Work
         rdf:about=""><dc:format>image/svg+xml</dc:format><dc:type
           rdf:resource="http://purl.org/dc/dcmitype/StillImage" /><dc:title></dc:title></cc:Work></rdf:RDF></metadata><defs
     id="defs6"><clipPath
       clipPathUnits="userSpaceOnUse"
       id="clipPath22"><path
         d="M 0,595.28 H 841.89 V 0 H 0 Z"
         id="path20" /></clipPath></defs><sodipodi:namedview
     pagecolor="#ffffff"
     bordercolor="#666666"
     borderopacity="1"
     objecttolerance="10"
     gridtolerance="10"
     guidetolerance="10"
     inkscape:pageopacity="0"
     inkscape:pageshadow="2"
     inkscape:window-width="1920"
     inkscape:window-height="1043"
     id="namedview4"
     showgrid="false"
     fit-margin-top="0"
     fit-margin-left="0"
     fit-margin-right="0"
     fit-margin-bottom="0"
     inkscape:snap-global="true"
     inkscape:snap-page="true"
     inkscape:snap-bbox="true"
     inkscape:bbox-paths="true"
     inkscape:bbox-nodes="true"
     inkscape:snap-nodes="false"
     inkscape:zoom="0.82760217"
     inkscape:cx="250.81569"
     inkscape:cy="235.53776"
     inkscape:window-x="1080"
     inkscape:window-y="551"
     inkscape:window-maximized="1"
     inkscape:current-layer="g10" /><g
     id="g10"
     inkscape:groupmode="layer"
     inkscape:label="IST_A_CMYK_POS"
     transform="matrix(1.3333333,0,0,-1.3333333,-149.26813,605.91586)"><g
       id="g12"
       transform="translate(382.894,367.1836)"><path
         d="M 0,0 H -15.886 V 9.334 H 26.646 V 0 H 10.76 V -46.69 H 0 Z"
         style="fill:#485156;fill-opacity:1;fill-rule:nonzero;stroke:none"
         id="path14" /></g><g
       id="g18"
       clip-path="url(#clipPath22)"><g
         id="g24"
         transform="translate(428.6709,385.8584)"><path
           d="M 0,0 C 4.014,2.439 7.944,4.878 11.361,7.485 L 15.375,1.261 C 11.532,-1.515 8.372,-3.364 3.76,-5.722 Z m -11.87,-9.34 h 34.848 v -9.335 H -1.109 V -32.22 h 22.207 v -9.339 H -1.109 v -14.467 h 24.087 v -9.339 H -11.87 Z"
           style="fill:#485156;fill-opacity:1;fill-rule:nonzero;stroke:none"
           id="path26" /></g><g
         id="g28"
         transform="translate(460.1875,361.1265)"><path
           d="m 0,0 c 0,10.263 6.064,16.236 20.242,16.236 5.297,0 10.762,-0.674 15.46,-1.852 l -1.195,-9.17 c -4.612,0.843 -9.995,1.432 -13.923,1.432 -7.431,0 -9.822,-2.525 -9.822,-8.498 v -21.535 c 0,-5.973 2.391,-8.498 9.822,-8.498 3.928,0 9.311,0.591 13.923,1.432 l 1.195,-9.169 C 31.004,-40.801 25.539,-41.475 20.242,-41.475 6.064,-41.475 0,-35.5 0,-25.238 Z"
           style="fill:#485156;fill-opacity:1;fill-rule:nonzero;stroke:none"
           id="path30" /></g><g
         id="g32"
         transform="translate(515.3623,362.9756)"><path
           d="M 0,0 V -42.482 H -10.506 V 13.542 H 3.843 l 21.608,-42.563 v 42.563 h 10.507 v -56.024 h -14.35 z"
           style="fill:#485156;fill-opacity:1;fill-rule:nonzero;stroke:none"
           id="path34" /></g><path
         d="m 574.036,320.494 h -10.763 v 56.024 h 10.763 z"
         style="fill:#485156;fill-opacity:1;fill-rule:nonzero;stroke:none"
         id="path36" /><g
         id="g38"
         transform="translate(584.7139,361.1265)"><path
           d="m 0,0 c 0,10.263 6.063,16.236 20.242,16.236 5.295,0 10.761,-0.674 15.458,-1.852 l -1.195,-9.17 c -4.612,0.843 -9.992,1.432 -13.923,1.432 -7.429,0 -9.822,-2.525 -9.822,-8.498 v -21.535 c 0,-5.973 2.393,-8.498 9.822,-8.498 3.931,0 9.311,0.591 13.923,1.432 L 35.7,-39.622 C 31.003,-40.801 25.537,-41.475 20.242,-41.475 6.063,-41.475 0,-35.5 0,-25.238 Z"
           style="fill:#485156;fill-opacity:1;fill-rule:nonzero;stroke:none"
           id="path40" /></g><g
         id="g42"
         transform="translate(637.582,337.4868)"><path
           d="m 0,0 c 0,-5.301 2.732,-8.497 10.76,-8.497 8.03,0 10.762,3.196 10.762,8.497 v 22.041 c 0,5.299 -2.732,8.497 -10.762,8.497 C 2.732,30.538 0,27.34 0,22.041 Z m 32.285,-0.588 c 0,-9.338 -5.466,-17.247 -21.525,-17.247 -16.055,0 -21.523,7.909 -21.523,17.247 v 23.217 c 0,9.338 5.468,17.246 21.523,17.246 16.059,0 21.525,-7.908 21.525,-17.246 z"
           style="fill:#485156;fill-opacity:1;fill-rule:nonzero;stroke:none"
           id="path44" /></g><g
         id="g46"
         transform="translate(387.6919,254.2227)"><path
           d="M 0,0 H 25.623 V -4.458 H -5.038 V 51.569 H 0 Z"
           style="fill:#485156;fill-opacity:1;fill-rule:nonzero;stroke:none"
           id="path48" /></g><path
         d="m 429.798,249.765 h -5.038 v 56.027 h 5.038 z"
         style="fill:#485156;fill-opacity:1;fill-rule:nonzero;stroke:none"
         id="path50" /><g
         id="g52"
         transform="translate(459.8613,248.9238)"><path
           d="m 0,0 c -4.952,0 -11.188,0.841 -16.057,2.689 l 0.939,4.041 C -9.992,5.216 -4.783,4.46 0.171,4.46 c 9.736,0 12.386,2.858 12.386,10.01 0,8.664 -0.085,9.588 -12.728,12.45 -13.75,3.111 -15.287,5.552 -15.287,16.823 0,9.171 3.415,13.964 17.68,13.964 4.953,0 10.846,-0.839 14.691,-1.933 l -0.599,-4.207 c -4.185,0.926 -9.482,1.683 -13.923,1.683 -11.274,0 -12.811,-2.692 -12.811,-9.674 0,-9.085 0.256,-9.507 12.214,-12.45 C 16.742,27.425 17.595,25.322 17.595,14.721 17.595,5.554 14.435,0 0,0"
           style="fill:#485156;fill-opacity:1;fill-rule:nonzero;stroke:none"
           id="path54" /></g><g
         id="g56"
         transform="translate(521.3564,268.3564)"><path
           d="M 0,0 C 0,4.711 -2.818,7.907 -9.395,7.907 H -25.28 v -22.124 h 17.338 c 5.379,0 7.942,2.608 7.942,7.066 z m -1.795,27.088 c 0,3.87 -2.22,5.972 -7.089,5.972 H -25.28 V 12.282 h 14.688 c 6.236,0 8.797,3.196 8.797,7.656 z m -28.526,-45.68 v 56.027 h 21.352 c 7.688,0 12.215,-3.618 12.215,-11.02 v -6.731 c 0,-4.458 -1.88,-7.402 -6.49,-9.085 C 1.197,10.01 5.038,6.391 5.038,0.169 v -7.32 c 0,-7.74 -5.721,-11.441 -13.066,-11.441 z"
           style="fill:#485156;fill-opacity:1;fill-rule:nonzero;stroke:none"
           id="path58" /></g><g
         id="g60"
         transform="translate(571.7461,265.749)"><path
           d="m 0,0 v 24.058 c 0,7.993 -3.927,12.367 -14.86,12.367 -10.934,0 -14.863,-4.374 -14.863,-12.367 V 0 c 0,-7.992 3.929,-12.365 14.863,-12.365 C -3.927,-12.365 0,-7.992 0,0 m -14.86,-16.825 c -14.606,0 -19.903,7.068 -19.903,16.656 v 24.396 c 0,9.589 5.297,16.655 19.903,16.655 14.605,0 19.9,-7.066 19.9,-16.655 V -0.169 c 0,-9.588 -5.295,-16.656 -19.9,-16.656"
           style="fill:#485156;fill-opacity:1;fill-rule:nonzero;stroke:none"
           id="path62" /></g><g
         id="g64"
         transform="translate(596.6025,268.7764)"><path
           d="M 0,0 H 23.403 L 11.699,34.154 Z M 24.938,-4.289 H -1.537 l -5.297,-14.723 h -4.955 L 8.027,37.015 h 7.432 L 35.273,-19.012 H 30.32 Z"
           style="fill:#485156;fill-opacity:1;fill-rule:nonzero;stroke:none"
           id="path66" /></g><g
         id="g68"
         transform="translate(251.2451,202.0059)"><path
           d="m 0,0 c 0,0 -79.479,38.99 -79.479,111.78 v 80.836 H 79.776 V 111.78 C 79.776,38.99 0,0 0,0"
           style="fill:#0095db;fill-opacity:1;fill-rule:evenodd;stroke:none"
           id="path70" /></g><g
         id="g72"
         transform="translate(293.7866,333.8047)"><path
           d="m 0,0 h -6.633 v -49.854 h -14.35 L -20.985,0 h -6.613 V 9.995 H 0 Z"
           style="fill:#ffffff;fill-opacity:1;fill-rule:nonzero;stroke:none"
           id="path74" /></g><g
         id="g76"
         transform="translate(229.7217,283.9844)"><path
           d="m 0,0 h -14.344 l 0.016,59.815 h 14.309 z"
           style="fill:#ffffff;fill-opacity:1;fill-rule:nonzero;stroke:none"
           id="path78" /></g><g
         id="g80"
         transform="translate(265.5791,377.6938)"><path
           d="m 0,0 c -11.87,0 -21.49,-6.152 -21.49,-18.022 l -0.004,-91.622 c 0,-10.055 0,-15.041 -7.143,-15.041 -6.64,0 -7.224,4.965 -7.224,12.292 h -0.002 c 0,3.955 -3.211,7.164 -7.169,7.164 -3.953,0 -7.163,-3.209 -7.163,-7.164 h -0.013 c 0,-10.087 9.705,-15.275 21.571,-15.275 11.868,0 21.49,6.154 21.49,18.024 l 0.006,91.622 c 0,10.054 -0.002,15.039 7.141,15.039 6.643,0 7.225,-4.971 7.225,-12.288 h 0.008 c 0,-3.959 3.206,-7.164 7.16,-7.164 3.96,0 7.166,3.205 7.166,7.164 h 0.014 C 21.573,-5.184 11.869,0 0,0"
           style="fill:#ffffff;fill-opacity:1;fill-rule:nonzero;stroke:none"
           id="path82" /></g></g></g></svg>
